HIERARCHY
ROOT Hips
{
	OFFSET 0.000000 100.481300 0.000000
	CHANNELS 6 Xposition Yposition Zposition Xrotation Yrotation Zrotation
	JOINT Spine
	{
		OFFSET -0.279200 12.230698 -2.892100
		CHANNELS 3 Xrotation Yrotation Zrotation
		JOINT Spine1
		{
			OFFSET -0.325700 14.269203 -3.374200
			CHANNELS 3 Xrotation Yrotation Zrotation
			JOINT Spine2
			{
				OFFSET -0.372300 16.307602 -0.352600
				CHANNELS 3 Xrotation Yrotation Zrotation
				JOINT Neck
				{
					OFFSET -0.418800 17.814194 8.416900
					CHANNELS 3 Xrotation Yrotation Zrotation
					JOINT Head
					{
						OFFSET 0.000000 7.031097 3.806800
						CHANNELS 3 Xrotation Yrotation Zrotation
						JOINT HeadTop_End
						{
							OFFSET 0.000000 24.646606 12.978600
							CHANNELS 3 Xrotation Yrotation Zrotation
							End Site
							{
								OFFSET 0.000000 27.854965 0.000000
							}
						}
					}
				}
				JOINT LeftShoulder
				{
					OFFSET 16.952999 14.495407 -7.737500
					CHANNELS 3 Xrotation Yrotation Zrotation
					JOINT LeftArm
					{
						OFFSET 9.308998 -2.777710 0.208600
						CHANNELS 3 Xrotation Yrotation Zrotation
						JOINT LeftForeArm
						{
							OFFSET 29.972298 0.000000 0.000000
							CHANNELS 3 Xrotation Yrotation Zrotation
							JOINT LeftHand
							{
								OFFSET 26.026505 0.000000 0.000000
								CHANNELS 3 Xrotation Yrotation Zrotation
								JOINT LeftHandThumb1
								{
									OFFSET 12.240501 -7.147949 9.207150
									CHANNELS 3 Xrotation Yrotation Zrotation
									JOINT LeftHandThumb2
									{
										OFFSET 4.138618 -2.389435 2.389433
										CHANNELS 3 Xrotation Yrotation Zrotation
										JOINT LeftHandThumb3
										{
											OFFSET 2.726913 -1.574387 1.574386
											CHANNELS 3 Xrotation Yrotation Zrotation
											JOINT LeftHandThumb4
											{
												OFFSET 3.941010 -2.275345 2.275342
												CHANNELS 3 Xrotation Yrotation Zrotation
												End Site
												{
													OFFSET -0.005798 5.087799 0.009903
												}
											}
										}
									}
								}
								JOINT LeftHandIndex1
								{
									OFFSET 24.424698 -1.985611 5.953459
									CHANNELS 3 Xrotation Yrotation Zrotation
									JOINT LeftHandIndex2
									{
										OFFSET 6.426697 0.000000 0.000000
										CHANNELS 3 Xrotation Yrotation Zrotation
										JOINT LeftHandIndex3
										{
											OFFSET 5.337898 0.000000 0.000000
											CHANNELS 3 Xrotation Yrotation Zrotation
											JOINT LeftHandIndex4
											{
												OFFSET 4.409401 0.000000 0.000000
												CHANNELS 3 Xrotation Yrotation Zrotation
												End Site
												{
													OFFSET 0.000000 4.409363 0.014373
												}
											}
										}
									}
								}
								JOINT LeftHandMiddle1
								{
									OFFSET 23.810104 0.000000 0.000000
									CHANNELS 3 Xrotation Yrotation Zrotation
									JOINT LeftHandMiddle2
									{
										OFFSET 7.176498 0.000000 0.000000
										CHANNELS 3 Xrotation Yrotation Zrotation
										JOINT LeftHandMiddle3
										{
											OFFSET 6.774902 0.000000 0.000000
											CHANNELS 3 Xrotation Yrotation Zrotation
											JOINT LeftHandMiddle4
											{
												OFFSET 5.403328 0.000000 0.000000
												CHANNELS 3 Xrotation Yrotation Zrotation
												End Site
												{
													OFFSET -0.027702 5.403244 0.017414
												}
											}
										}
									}
								}
								JOINT LeftHandRing1
								{
									OFFSET 22.908401 -0.839279 -6.020567
									CHANNELS 3 Xrotation Yrotation Zrotation
									JOINT LeftHandRing2
									{
										OFFSET 6.337502 0.000000 0.000000
										CHANNELS 3 Xrotation Yrotation Zrotation
										JOINT LeftHandRing3
										{
											OFFSET 5.779297 0.000000 0.000000
											CHANNELS 3 Xrotation Yrotation Zrotation
											JOINT LeftHandRing4
											{
												OFFSET 4.965698 0.000000 0.000000
												CHANNELS 3 Xrotation Yrotation Zrotation
												End Site
												{
													OFFSET 0.000000 4.965668 0.016186
												}
											}
										}
									}
								}
								JOINT LeftHandPinky1
								{
									OFFSET 20.037003 -1.530319 -10.950146
									CHANNELS 3 Xrotation Yrotation Zrotation
									JOINT LeftHandPinky2
									{
										OFFSET 5.254700 0.000000 0.000000
										CHANNELS 3 Xrotation Yrotation Zrotation
										JOINT LeftHandPinky3
										{
											OFFSET 4.810204 0.000000 0.000000
											CHANNELS 3 Xrotation Yrotation Zrotation
											JOINT LeftHandPinky4
											{
												OFFSET 3.647202 0.000000 0.000000
												CHANNELS 3 Xrotation Yrotation Zrotation
												End Site
												{
													OFFSET 0.000000 3.647186 0.011889
												}
											}
										}
									}
								}
							}
						}
					}
				}
				JOINT RightShoulder
				{
					OFFSET -15.141001 14.495407 -7.737500
					CHANNELS 3 Xrotation Yrotation Zrotation
					JOINT RightArm
					{
						OFFSET -9.308998 -2.777710 0.208500
						CHANNELS 3 Xrotation Yrotation Zrotation
						JOINT RightForeArm
						{
							OFFSET -29.972300 0.000000 0.000000
							CHANNELS 3 Xrotation Yrotation Zrotation
							JOINT RightHand
							{
								OFFSET -26.026505 0.000000 0.000000
								CHANNELS 3 Xrotation Yrotation Zrotation
								JOINT RightHandThumb1
								{
									OFFSET -12.240601 -7.148026 9.207092
									CHANNELS 3 Xrotation Yrotation Zrotation
									JOINT RightHandThumb2
									{
										OFFSET -4.138618 -2.389435 2.389433
										CHANNELS 3 Xrotation Yrotation Zrotation
										JOINT RightHandThumb3
										{
											OFFSET -2.726974 -1.574417 1.574421
											CHANNELS 3 Xrotation Yrotation Zrotation
											JOINT RightHandThumb4
											{
												OFFSET -3.941010 -2.275345 2.275343
												CHANNELS 3 Xrotation Yrotation Zrotation
												End Site
												{
													OFFSET 0.005814 5.087799 0.009927
												}
											}
										}
									}
								}
								JOINT RightHandIndex1
								{
									OFFSET -24.424698 -1.985657 5.953444
									CHANNELS 3 Xrotation Yrotation Zrotation
									JOINT RightHandIndex2
									{
										OFFSET -6.426697 0.000000 0.000000
										CHANNELS 3 Xrotation Yrotation Zrotation
										JOINT RightHandIndex3
										{
											OFFSET -5.337898 0.000000 0.000000
											CHANNELS 3 Xrotation Yrotation Zrotation
											JOINT RightHandIndex4
											{
												OFFSET -4.409401 0.000000 0.000000
												CHANNELS 3 Xrotation Yrotation Zrotation
												End Site
												{
													OFFSET 0.000000 4.409363 0.014408
												}
											}
										}
									}
								}
								JOINT RightHandMiddle1
								{
									OFFSET -23.810097 0.000000 0.000000
									CHANNELS 3 Xrotation Yrotation Zrotation
									JOINT RightHandMiddle2
									{
										OFFSET -7.176498 0.000000 0.000000
										CHANNELS 3 Xrotation Yrotation Zrotation
										JOINT RightHandMiddle3
										{
											OFFSET -6.774902 0.000000 0.000000
											CHANNELS 3 Xrotation Yrotation Zrotation
											JOINT RightHandMiddle4
											{
												OFFSET -5.403328 0.000000 0.000000
												CHANNELS 3 Xrotation Yrotation Zrotation
												End Site
												{
													OFFSET 0.027702 5.403244 0.017457
												}
											}
										}
									}
								}
								JOINT RightHandRing1
								{
									OFFSET -22.908302 -0.839325 -6.020576
									CHANNELS 3 Xrotation Yrotation Zrotation
									JOINT RightHandRing2
									{
										OFFSET -6.337502 0.000000 0.000000
										CHANNELS 3 Xrotation Yrotation Zrotation
										JOINT RightHandRing3
										{
											OFFSET -5.779297 0.000000 0.000000
											CHANNELS 3 Xrotation Yrotation Zrotation
											JOINT RightHandRing4
											{
												OFFSET -4.965698 0.000000 0.000000
												CHANNELS 3 Xrotation Yrotation Zrotation
												End Site
												{
													OFFSET 0.000000 4.965668 0.016226
												}
											}
										}
									}
								}
								JOINT RightHandPinky1
								{
									OFFSET -20.037003 -1.530334 -10.950259
									CHANNELS 3 Xrotation Yrotation Zrotation
									JOINT RightHandPinky2
									{
										OFFSET -5.254700 0.000000 0.000000
										CHANNELS 3 Xrotation Yrotation Zrotation
										JOINT RightHandPinky3
										{
											OFFSET -4.810204 0.000000 0.000000
											CHANNELS 3 Xrotation Yrotation Zrotation
											JOINT RightHandPinky4
											{
												OFFSET -3.647202 0.000000 0.000000
												CHANNELS 3 Xrotation Yrotation Zrotation
												End Site
												{
													OFFSET 0.000000 3.647186 0.011917
												}
											}
										}
									}
								}
							}
						}
					}
				}
			}
		}
	}
	JOINT LeftUpLeg
	{
		OFFSET 15.427100 -6.655098 0.678600
		CHANNELS 3 Xrotation Yrotation Zrotation
		JOINT LeftLeg
		{
			OFFSET 4.081073 -39.591068 13.024000
			CHANNELS 3 Xrotation Yrotation Zrotation
			JOINT LeftFoot
			{
				OFFSET -4.081074 -37.707932 -15.979700
				CHANNELS 3 Xrotation Yrotation Zrotation
				JOINT LeftToeBase
				{
					OFFSET 5.346399 -15.068900 20.645000
					CHANNELS 3 Xrotation Yrotation Zrotation
					JOINT LeftToe_End
					{
						OFFSET 2.754700 0.931300 11.300900
						CHANNELS 3 Xrotation Yrotation Zrotation
						End Site
						{
							OFFSET 0.000000 11.669021 0.000000
						}
					}
				}
			}
		}
	}
	JOINT RightUpLeg
	{
		OFFSET -15.569500 -6.655098 0.678600
		CHANNELS 3 Xrotation Yrotation Zrotation
		JOINT RightLeg
		{
			OFFSET -4.081825 -39.591045 13.023800
			CHANNELS 3 Xrotation Yrotation Zrotation
			JOINT RightFoot
			{
				OFFSET 4.081824 -37.707954 -15.979600
				CHANNELS 3 Xrotation Yrotation Zrotation
				JOINT RightToeBase
				{
					OFFSET -5.346400 -15.068900 20.645000
					CHANNELS 3 Xrotation Yrotation Zrotation
					JOINT RightToe_End
					{
						OFFSET -2.754700 0.931300 11.300900
						CHANNELS 3 Xrotation Yrotation Zrotation
						End Site
						{
							OFFSET 0.000000 11.669021 0.000000
						}
					}
				}
			}
		}
	}
}
MOTION
Frames: 6
Frame Time: 0.033333
2.463165 94.627968 -0.899720 -0.891394 1.598191 -5.799132 0.514990 -0.068616 3.807399 1.030278 -0.093041 5.732469 1.030277 -0.093041 5.732466 1.046612 -0.298136 -2.174058 1.574060 0.544182 -8.140517 0.000000 -0.000000 0.000000 3.582331 -13.764046 -5.044411 4.032797 3.507346 -83.677918 -0.000003 -14.506794 -0.000037 -27.047153 3.499823 -9.456404 18.150234 -1.019445 11.031497 1.350049 32.824178 -3.239219 0.956811 9.473559 2.475113 -0.000000 -0.000002 -0.000001 0.346585 4.685573 -7.894082 0.352247 2.641204 -20.596861 0.025934 0.718027 -10.183296 0.000000 -0.000001 0.000002 0.890319 8.715896 -15.911392 0.809943 3.669327 -33.039831 0.167521 1.397510 -12.687400 -0.000001 -0.000001 0.000002 2.438518 11.447685 -26.372182 1.604672 3.617195 -40.769741 0.513341 1.664497 -19.434842 -0.000001 0.000000 0.000000 5.488862 15.790315 -37.067792 1.204124 3.674314 -45.662427 0.442718 2.666033 -20.540365 -0.000001 -0.000000 0.000001 4.515904 3.326093 5.472515 -1.219833 0.655954 67.339354 -0.000739 17.728389 0.002415 -10.654829 -8.928043 10.233615 18.147630 1.016740 -11.036075 1.349701 -32.823635 3.236700 0.821841 -8.572500 -1.800918 0.000002 -0.000001 -0.000001 0.346313 -4.684960 7.887205 0.352301 -2.641517 20.596821 -0.220209 -0.076126 13.852251 -0.000000 0.000000 -0.000002 0.889571 -8.715467 15.904335 0.810089 -3.669809 33.039845 -1.462680 3.257498 16.543908 -0.000001 -0.000000 -0.000000 2.437537 -11.447559 26.365042 1.604890 -3.617747 40.769724 -1.920463 4.537379 19.267798 0.000001 -0.000000 -0.000000 5.487380 -15.790706 37.060497 1.204380 -3.674920 45.662420 -1.748403 3.269364 12.626036 -0.000000 -0.000000 -0.000000 -17.464920 10.627190 18.655601 22.755986 8.351086 2.025470 -4.332721 4.463894 -13.319350 -0.468091 -0.000051 -0.000004 0.000000 0.000000 -0.000000 1.091359 -4.339595 10.603759 11.119993 -4.521748 4.017741 -11.337536 0.536211 -7.855601 -0.586301 -0.000016 0.000000 -0.000000 0.000001 -0.000000 
2.443884 94.596184 -0.721708 -0.940437 1.123546 -5.612417 0.528333 -0.071754 3.690978 1.056844 -0.089678 5.553036 1.056844 -0.089678 5.553040 0.957879 -0.316383 -2.022179 1.652139 0.528291 -7.715079 0.000000 -0.000000 0.000000 3.457928 -13.586212 -5.222568 3.862474 3.256338 -83.309054 0.819139 -14.378851 0.219370 -26.461285 2.850167 -9.229499 18.150241 -1.019439 11.031517 1.350056 32.824168 -3.239244 0.956810 9.473580 2.475110 0.000000 0.000002 0.000000 0.347243 4.690273 -7.946012 0.353424 2.644339 -20.633633 0.025773 0.717127 -10.173340 0.000001 0.000000 -0.000002 0.891631 8.720423 -15.963472 0.811756 3.672100 -33.076625 0.167326 1.396636 -12.677472 -0.000000 0.000000 0.000004 2.440643 11.451887 -26.424480 1.606836 3.619693 -40.806528 0.513047 1.663662 -19.424906 0.000001 -0.000000 0.000000 5.491810 15.794065 -37.120504 1.206501 3.676632 -45.699238 0.442400 2.665190 -20.530434 -0.000000 -0.000000 0.000001 4.382033 3.316268 5.842016 -1.175336 1.312180 67.244394 0.570916 17.487649 -0.195383 -10.676445 -8.213297 9.653891 18.147618 1.016739 -11.036073 1.349684 -32.823628 3.236657 0.821852 -8.572499 -1.800916 -0.000001 0.000003 0.000001 0.346313 -4.684960 7.887224 0.352301 -2.641516 20.596820 -0.220208 -0.076127 13.852263 0.000000 0.000000 -0.000005 0.889573 -8.715465 15.904350 0.810088 -3.669810 33.039828 -1.462682 3.257497 16.543908 -0.000000 0.000000 -0.000003 2.437540 -11.447558 26.365080 1.604888 -3.617749 40.769703 -1.920469 4.537379 19.267798 0.000001 -0.000000 -0.000000 5.487383 -15.790708 37.060480 1.204381 -3.674915 45.662437 -1.748405 3.269362 12.626034 0.000000 0.000000 -0.000001 -17.062183 10.801644 18.587694 22.835214 8.819224 2.054195 -4.745514 4.515657 -13.598872 -0.577236 -0.000020 -0.000001 0.000000 -0.000002 -0.000000 1.157277 -4.325619 10.436760 11.317907 -4.084750 3.996842 -11.806817 0.546352 -7.735796 -0.568371 -0.000006 0.000000 0.000000 0.000000 0.000000 
2.425076 94.585472 -0.499463 -0.977736 0.566109 -5.413972 0.536024 -0.080301 3.576928 1.072138 -0.095152 5.358266 1.072137 -0.095152 5.358265 0.946521 -0.325464 -1.871047 2.069489 0.636362 -7.311367 0.000000 -0.000000 0.000000 3.326694 -13.383769 -5.420592 3.711430 3.095970 -82.925354 1.619926 -14.221506 0.433550 -25.874476 2.182312 -9.203848 18.150234 -1.019440 11.031504 1.350059 32.824188 -3.239237 0.956806 9.473571 2.475111 -0.000000 0.000000 -0.000001 0.349171 4.703927 -8.096867 0.356854 2.653415 -20.740262 0.025308 0.714535 -10.144535 -0.000001 0.000000 -0.000004 0.895449 8.733566 -16.114757 0.817015 3.680141 -33.183494 0.166758 1.394104 -12.648618 -0.000001 -0.000001 0.000003 2.446822 11.464038 -26.576404 1.613128 3.626960 -40.913475 0.512188 1.661228 -19.396054 -0.000000 -0.000000 0.000000 5.500377 15.804925 -37.273521 1.213421 3.683358 -45.806206 0.441489 2.662743 -20.501549 -0.000000 0.000000 0.000001 4.240339 3.340204 6.237912 -1.094448 1.996278 67.130262 1.245912 17.251680 -0.435579 -10.670200 -7.506400 9.103087 18.147618 1.016741 -11.036075 1.349704 -32.823642 3.236689 0.821848 -8.572484 -1.800915 -0.000002 0.000001 0.000001 0.346313 -4.684958 7.887200 0.352300 -2.641517 20.596837 -0.220207 -0.076125 13.852250 -0.000000 0.000000 -0.000002 0.889571 -8.715464 15.904319 0.810090 -3.669809 33.039855 -1.462683 3.257497 16.543912 -0.000000 -0.000000 -0.000001 2.437537 -11.447558 26.365063 1.604891 -3.617751 40.769717 -1.920465 4.537380 19.267796 0.000001 -0.000000 -0.000000 5.487381 -15.790704 37.060483 1.204380 -3.674917 45.662424 -1.748404 3.269363 12.626032 0.000000 0.000000 -0.000000 -16.582924 11.036154 18.523482 22.865634 9.320441 2.081607 -5.185749 4.595723 -13.948821 -0.728455 -0.000031 0.000003 -0.000000 -0.000002 -0.000000 1.270017 -4.248807 10.247096 11.451522 -3.599468 3.994779 -12.354533 0.553442 -7.606283 -0.596125 -0.000019 -0.000004 -0.000000 -0.000000 -0.000000 
2.407410 94.587425 -0.232172 -1.019875 -0.010271 -5.223685 0.545354 -0.102959 3.470758 1.090838 -0.126470 5.157638 1.090838 -0.126469 5.157641 0.979679 -0.329517 -1.723361 2.710803 0.836494 -6.933815 -0.000000 -0.000000 -0.000000 3.194062 -13.156082 -5.612159 3.564939 2.982876 -82.541757 2.417417 -14.046424 0.644032 -25.297066 1.494467 -9.332981 18.150237 -1.019440 11.031491 1.350063 32.824175 -3.239254 0.956805 9.473575 2.475121 0.000001 0.000000 -0.000000 0.352251 4.725193 -8.332016 0.362239 2.667558 -20.906524 0.024585 0.710491 -10.099597 0.000001 0.000000 -0.000004 0.901477 8.754025 -16.350571 0.825245 3.692656 -33.350031 0.165875 1.390153 -12.603662 0.000000 -0.000000 0.000002 2.456531 11.482957 -26.813277 1.622971 3.638264 -41.080122 0.510854 1.657435 -19.351060 0.000000 0.000000 0.000000 5.513794 15.821814 -37.512075 1.224240 3.693811 -45.972941 0.440056 2.658928 -20.456553 0.000001 0.000000 -0.000002 4.090709 3.386737 6.653758 -0.989363 2.689378 67.008254 1.987984 17.012905 -0.706329 -10.630019 -6.813033 8.596665 18.147621 1.016736 -11.036105 1.349714 -32.823628 3.236719 0.821843 -8.572494 -1.800904 -0.000000 0.000001 -0.000001 0.346314 -4.684959 7.887204 0.352301 -2.641517 20.596799 -0.220208 -0.076127 13.852250 -0.000000 0.000000 0.000000 0.889572 -8.715465 15.904328 0.810087 -3.669810 33.039821 -1.462681 3.257497 16.543932 -0.000001 -0.000000 0.000001 2.437540 -11.447559 26.365065 1.604889 -3.617747 40.769700 -1.920467 4.537379 19.267803 -0.000000 0.000000 -0.000000 5.487387 -15.790706 37.060511 1.204381 -3.674917 45.662437 -1.748398 3.269364 12.626034 0.000000 0.000000 0.000000 -16.031142 11.274190 18.458211 22.868730 9.835450 2.108193 -5.666360 4.692983 -14.319240 -0.899736 -0.000015 0.000004 -0.000000 -0.000002 -0.000000 1.445645 -4.108155 10.065653 11.526846 -3.124507 4.001141 -12.943010 0.562399 -7.515289 -0.705023 -0.000019 -0.000004 0.000000 -0.000000 0.000000 
2.391469 94.591156 0.087739 -1.081075 -0.539672 -5.036152 0.566960 -0.148434 3.362376 1.134317 -0.202568 4.956341 1.134317 -0.202567 4.956343 1.028027 -0.330326 -1.581737 3.503187 1.125416 -6.589482 -0.000000 -0.000000 0.000000 3.062786 -12.922698 -5.776195 3.428949 2.860523 -82.170714 3.253121 -13.863808 0.858881 -24.740571 0.772078 -9.506018 18.150237 -1.019437 11.031509 1.350047 32.824168 -3.239228 0.956819 9.473580 2.475092 -0.000000 0.000001 -0.000001 0.356703 4.754909 -8.660866 0.369841 2.687306 -21.139041 0.023577 0.704831 -10.036734 0.000001 0.000000 -0.000002 0.910049 8.782590 -16.680376 0.836813 3.710117 -33.582964 0.164643 1.384628 -12.540775 0.000001 -0.000000 0.000001 2.470238 11.509343 -27.144502 1.636791 3.654013 -41.313195 0.508991 1.652131 -19.288161 -0.000000 0.000000 0.000000 5.532682 15.845329 -37.845737 1.239410 3.708379 -46.206059 0.438067 2.653590 -20.393608 -0.000001 -0.000000 -0.000000 3.934242 3.438282 7.085552 -0.872052 3.380446 66.878911 2.778259 16.769448 -0.998574 -10.548753 -6.158631 8.159691 18.147628 1.016749 -11.036065 1.349691 -32.823649 3.236659 0.821844 -8.572489 -1.800895 0.000001 -0.000002 0.000001 0.346315 -4.684956 7.887204 0.352300 -2.641517 20.596830 -0.220207 -0.076126 13.852245 -0.000000 -0.000000 -0.000004 0.889573 -8.715461 15.904341 0.810089 -3.669809 33.039862 -1.462682 3.257497 16.543917 0.000000 0.000000 -0.000001 2.437539 -11.447556 26.365071 1.604888 -3.617750 40.769717 -1.920466 4.537378 19.267793 -0.000000 0.000000 -0.000000 5.487386 -15.790702 37.060501 1.204379 -3.674914 45.662413 -1.748401 3.269363 12.626027 -0.000001 -0.000000 -0.000001 -15.381735 11.393999 18.351337 22.827498 10.413831 2.141093 -6.088379 4.774710 -14.699718 -0.968703 -0.000035 -0.000000 0.000000 -0.000001 0.000000 1.692244 -3.964686 9.901560 11.580144 -2.675393 3.995766 -13.530955 0.587440 -7.505475 -0.884623 -0.000015 -0.000001 -0.000000 -0.000000 -0.000000 
2.382941 94.555954 0.456737 -1.145121 -0.925162 -4.844755 0.608225 -0.220150 3.245278 1.217415 -0.335136 4.758530 1.217415 -0.335136 4.758530 1.043121 -0.333231 -1.442488 4.306842 1.474543 -6.266942 0.000001 0.000000 0.000000 2.936402 -12.711189 -5.889020 3.273597 2.637560 -81.813317 4.177472 -13.664517 1.086320 -24.207439 0.014640 -9.632987 18.150239 -1.019439 11.031509 1.350040 32.824168 -3.239215 0.956817 9.473582 2.475092 0.000001 -0.000000 0.000000 0.362569 4.792369 -9.075828 0.379543 2.712184 -21.432445 0.022317 0.697687 -9.957426 0.000000 0.000000 -0.000002 0.921103 8.818572 -17.096587 0.851516 3.732086 -33.876891 0.163097 1.377653 -12.461444 -0.000000 -0.000000 0.000001 2.487764 11.542540 -27.562550 1.654313 3.673821 -41.607299 0.506653 1.645433 -19.208783 -0.000000 0.000000 -0.000000 5.556732 15.874871 -38.266842 1.258637 3.726676 -46.500297 0.435562 2.646850 -20.314193 -0.000001 -0.000001 0.000002 3.772513 3.490461 7.550888 -0.721253 4.052415 66.707145 3.641637 16.584394 -1.319244 -10.421783 -5.586655 7.797906 18.147632 1.016732 -11.036121 1.349717 -32.823639 3.236722 0.821835 -8.572498 -1.800926 -0.000000 -0.000000 -0.000003 0.346315 -4.684958 7.887196 0.352302 -2.641517 20.596840 -0.220208 -0.076126 13.852260 0.000000 -0.000000 -0.000004 0.889572 -8.715465 15.904350 0.810087 -3.669809 33.039811 -1.462682 3.257498 16.543913 0.000000 -0.000000 0.000002 2.437539 -11.447558 26.365071 1.604890 -3.617751 40.769710 -1.920467 4.537382 19.267795 0.000000 0.000000 0.000000 5.487381 -15.790706 37.060470 1.204385 -3.674918 45.662454 -1.748399 3.269364 12.626027 0.000001 0.000000 -0.000001 -14.695743 11.178253 18.205243 22.750474 11.055334 2.166197 -6.059034 4.862276 -15.284753 -0.794377 -0.000034 0.000000 0.000000 0.000000 0.000000 1.923559 -3.885735 9.768329 11.798303 -2.355359 3.942305 -14.188837 0.680214 -7.638427 -1.083528 -0.000018 -0.000005 -0.000000 0.000000 -0.000000 
